<?xml version="1.0" encoding="utf-8"?><svg version="1.1" id="Layer_1" xmlns="http://www.w3.org/2000/svg" xmlns:xlink="http://www.w3.org/1999/xlink" x="0px" y="0px" viewBox="0 0 122.06 122.88" style="enable-background:new 0 0 122.06 122.88" xml:space="preserve"><style type="text/css">.st0{fill-rule:evenodd;clip-rule:evenodd;}</style><g><path class="st0" d="M95.19,57.99l-4.2-4.2l6.98-6.98c6.22,0.18,12.49-2.1,17.24-6.84c9.14-9.14,9.14-23.97,0-33.11 c-9.14-9.14-23.97-9.14-33.11,0c-4.75,4.75-7.02,11.02-6.84,17.24l-6.98,6.98l-4.51-4.51c-1.51-1.51-3.96-1.51-5.47,0l-2.19,2.19 c-1.51,1.51-1.51,3.96,0,5.47l4.51,4.51l-53.5,53.5L0,122.88l29.82-7.93l53.5-53.5l4.2,4.2c1.51,1.51,3.96,1.51,5.47,0l2.19-2.19 C96.7,61.95,96.7,59.5,95.19,57.99L95.19,57.99z M28.37,108.97l-20.83,6.01l5.45-21.38L59.38,47.2l15.38,15.38L28.37,108.97 L28.37,108.97z" fill="#e0e0e0"/></g></svg>